<svg id="visual" viewBox="0 0 900 600" width="900" height="600" xmlns="http://www.w3.org/2000/svg" xmlns:xlink="http://www.w3.org/1999/xlink" version="1.1"><path d="M0 469L15 464.3C30 459.7 60 450.3 90 453.7C120 457 150 473 180 472.2C210 471.3 240 453.7 270 449.7C300 445.7 330 455.3 360 465C390 474.7 420 484.3 450 491.7C480 499 510 504 540 507C570 510 600 511 630 508.5C660 506 690 500 720 495.2C750 490.3 780 486.7 810 476.8C840 467 870 451 885 443L900 435L900 601L885 601C870 601 840 601 810 601C780 601 750 601 720 601C690 601 660 601 630 601C600 601 570 601 540 601C510 601 480 601 450 601C420 601 390 601 360 601C330 601 300 601 270 601C240 601 210 601 180 601C150 601 120 601 90 601C60 601 30 601 15 601L0 601Z" fill="#0f0c9a" stroke-linecap="round" stroke-linejoin="miter"></path></svg>